<?xml version="1.0" standalone="no"?>
<!DOCTYPE svg PUBLIC "-//W3C//DTD SVG 1.1//EN" "http://www.w3.org/Graphics/SVG/1.1/DTD/svg11.dtd"><svg t="1708481535590"
   class="icon" viewBox="0 0 1024 1024" version="1.1" xmlns="http://www.w3.org/2000/svg" p-id="19613"
   xmlns:xlink="http://www.w3.org/1999/xlink" width="16" height="16">
   <path
      d="M512.012373 213.333333c-20.010667 0-39.210667 1.493333-57.642666 4.266667a42.666667 42.666667 0 0 1-12.714667-84.394667C464.268373 129.792 487.73504 128 512.012373 128c175.402667 0 303.36 94.506667 385.322667 184.618667a790.186667 790.186667 0 0 1 114.858667 165.290666 490.026667 490.026667 0 0 1 7.466666 15.274667l0.426667 0.981333 0.170667 0.341334v0.085333l0.042666 0.042667L981.345707 512l38.997333 17.365333-0.085333 0.128-0.085334 0.213334-0.341333 0.768a656.64 656.64 0 0 1-22.613333 43.264 800.853333 800.853333 0 0 1-67.84 99.925333 42.666667 42.666667 0 0 1-66.773334-53.12A714.837333 714.837333 0 0 0 933.772373 512a704.64 704.64 0 0 0-99.541333-141.952C760.929707 289.493333 654.177707 213.333333 512.012373 213.333333z m469.333334 298.666667l38.997333 17.365333a42.794667 42.794667 0 0 0 0-34.730666L981.345707 512zM186.977707 309.76a42.666667 42.666667 0 0 1 2.816 60.288A704.853333 704.853333 0 0 0 90.252373 512a705.066667 705.066667 0 0 0 99.541334 141.952C263.09504 734.506667 369.84704 810.666667 512.012373 810.666667a381.738667 381.738667 0 0 0 134.4-24.149334 42.666667 42.666667 0 0 1 29.866667 79.914667A467.157333 467.157333 0 0 1 512.012373 896c-175.402667 0-303.36-94.506667-385.322666-184.618667a790.058667 790.058667 0 0 1-114.858667-165.290666 470.101333 470.101333 0 0 1-7.466667-15.274667l-0.426666-0.981333-0.170667-0.341334-0.042667-0.085333v-0.042667L42.67904 512l-38.997333-17.365333 0.042666-0.042667 0.042667-0.085333 0.128-0.341334 0.426667-0.981333 1.621333-3.328a701.866667 701.866667 0 0 1 28.842667-53.12 790.186667 790.186667 0 0 1 91.904-124.117333 42.666667 42.666667 0 0 1 60.288-2.858667zM42.67904 512l-38.997333-17.365333a42.794667 42.794667 0 0 0 0 34.730666L42.67904 512z"
      fill="#888888" p-id="19614"></path>
   <path
      d="M469.345707 316.970667a42.666667 42.666667 0 0 1 42.666666-42.666667c128.768 0 230.4 107.946667 230.4 237.696a42.666667 42.666667 0 1 1-85.333333 0c0-85.717333-66.474667-152.362667-145.066667-152.362667a42.666667 42.666667 0 0 1-42.666666-42.666666z m-131.584 110.634666a42.666667 42.666667 0 0 1 32.725333 50.688A160.426667 160.426667 0 0 0 366.945707 512c0 85.717333 66.474667 152.362667 145.066666 152.362667 11.264 0 22.186667-1.322667 32.64-3.84a42.666667 42.666667 0 0 1 20.053334 82.944A224.128 224.128 0 0 1 512.012373 749.653333c-128.768 0-230.4-107.946667-230.4-237.696 0-17.664 1.877333-34.986667 5.461334-51.626666a42.666667 42.666667 0 0 1 50.688-32.768zM97.84704 55.168a42.666667 42.666667 0 0 1 60.330667 0l768 768a42.666667 42.666667 0 0 1-60.330667 60.330667l-768-768a42.666667 42.666667 0 0 1 0-60.330667z"
      fill="#888888" p-id="19615"></path>
</svg>