<?xml version="1.0" encoding="utf-8"?>
<!-- Generator: Adobe Illustrator 25.0.0, SVG Export Plug-In . SVG Version: 6.00 Build 0)  -->
<svg version="1.1" id="图层_1" xmlns="http://www.w3.org/2000/svg" xmlns:xlink="http://www.w3.org/1999/xlink" x="0px" y="0px"
	 viewBox="0 0 50 50" style="enable-background:new 0 0 50 50;" xml:space="preserve">
<style type="text/css">
	.st0{fill:#CC0000;}
</style>
<g>
	<path class="st0" d="M38.3,0H11.9C5.5,0,0.1,5.3,0.1,11.8v26.3C0.1,44.6,5.4,50,11.9,50h26.3c0.1,0,0.3,0,0.6,0
		c-1.5-1.5-2.2-3.3-2.2-5.5c0-0.6,0-1.2,0.1-1.7H12.1c-2.5,0-4.4-2-4.4-4.4V11.8c0-2.5,2-4.4,4.4-4.4h26.3c2.5,0,4.4,2,4.4,4.4v24.7
		c0.6-0.1,1.2-0.1,1.7-0.1c2.2,0,4.1,0.9,5.5,2.2c0-0.1,0-0.3,0-0.4V11.8C50,5.3,44.8,0,38.3,0z"/>
	<path class="st0" d="M44.5,38.9c-3.1,0-5.5,2.5-5.5,5.5s2.5,5.5,5.5,5.5c3.1,0,5.5-2.5,5.5-5.5C49.9,41.2,47.6,38.9,44.5,38.9z"/>
	<polygon class="st0" points="37.8,37.7 37.8,12.3 30.5,12.3 30.5,21.3 19.8,21.3 19.8,12.3 12.3,12.3 12.3,37.7 19.8,37.7 
		19.8,28.6 30.5,28.6 30.5,37.7 	"/>
</g>
</svg>
