<?xml version="1.0" encoding="UTF-8"?><!DOCTYPE svg PUBLIC "-//W3C//DTD SVG 1.1//EN" "http://www.w3.org/Graphics/SVG/1.1/DTD/svg11.dtd"><svg xmlns="http://www.w3.org/2000/svg" xmlns:xlink="http://www.w3.org/1999/xlink"><defs/><symbol id="chatgpt" viewBox="0 0 1024 1024"><path d="M826.368 325.632c0-7.168 2.048-10.24 10.24-10.24h123.904c7.168 0 10.24 2.048 10.24 10.24v621.568c0 7.168-2.048 10.24-10.24 10.24h-122.88c-8.192 0-10.24-4.096-10.24-10.24l-1.024-621.568z m-8.192-178.176c0-50.176 35.84-79.872 79.872-79.872 48.128 0 79.872 32.768 79.872 79.872 0 52.224-33.792 79.872-81.92 79.872-46.08 1.024-77.824-27.648-77.824-79.872zM462.848 584.704C441.344 497.664 389.12 307.2 368.64 215.04h-2.048c-16.384 92.16-58.368 247.808-92.16 369.664h188.416zM243.712 712.704l-62.464 236.544c-2.048 7.168-4.096 8.192-12.288 8.192H54.272c-8.192 0-10.24-2.048-8.192-12.288l224.256-783.36c4.096-13.312 7.168-26.624 8.192-65.536 0-6.144 2.048-8.192 7.168-8.192H450.56c6.144 0 8.192 2.048 10.24 8.192l250.88 849.92c2.048 7.168 0 10.24-7.168 10.24H573.44c-7.168 0-10.24-2.048-12.288-7.168l-65.536-236.544c1.024 1.024-251.904 0-251.904 0z" fill="#1296db" p-id="24332"/></symbol><symbol id="chevron-down" viewBox="0 0 24 24">
    <path d="m6 9 6 6 6-6"/>
</symbol><symbol id="chevron-right" viewBox="0 0 24 24">
    <path d="m9 18 6-6-6-6"/>
</symbol><symbol id="clear" viewBox="0 0 1024 1024"><path d="M274.56 798.997333l19.434667-25.130666-33.792 68.565333a18.133333 18.133333 0 0 0 11.562666 25.536l59.733334 16a18.133333 18.133333 0 0 0 17.28-4.48c20.522667-19.818667 35.626667-35.989333 45.290666-48.469333l19.456-25.130667-33.813333 68.565333a18.133333 18.133333 0 0 0 11.562667 25.536l84.48 22.634667a18.133333 18.133333 0 0 0 17.28-4.48c20.522667-19.84 35.626667-35.989333 45.269333-48.469333l19.456-25.130667-33.813333 68.565333A18.133333 18.133333 0 0 0 535.530667 938.666667l72.106666 19.328a18.133333 18.133333 0 0 0 17.28-4.48c20.522667-19.84 35.626667-36.010667 45.269334-48.490667l19.456-25.130667-33.813334 68.586667a18.133333 18.133333 0 0 0 11.584 25.514667l86.421334 23.338666 3.84-0.213333c13.269333-0.704 29.056-5.034667 43.84-12.8 29.781333-15.701333 48.170667-43.2 52.181333-78.250667 2.133333-18.517333 4.778667-38.549333 8.405333-63.530666 1.642667-11.221333 2.944-20.010667 6.229334-41.834667 11.050667-73.322667 14.634667-101.034667 17.130666-133.674667l0.938667-12.373333 2.837333-2.922667 12.330667-1.344a41.813333 41.813333 0 0 0 24.810667-11.221333c10.730667-10.24 14.805333-25.386667 11.093333-42.197333l-37.546667-171.584c-3.029333-13.696-11.264-27.946667-23.146666-39.829334-11.648-11.626667-25.92-20.138667-39.893334-23.893333L723.626667 331.306667l-2.261334-3.925334L774.250667 130.133333c8.32-31.061333-11.754667-63.744-44.970667-72.64l-79.509333-21.312c-33.194667-8.896-66.922667 9.365333-75.264 40.426667l-52.842667 197.269333-3.925333 2.261334-118.101334-31.637334c-13.994667-3.754667-30.634667-3.498667-46.506666 0.746667-16.256 4.352-30.506667 12.586667-39.957334 22.933333l-118.314666 129.792c-11.605333 12.714667-15.658667 27.84-11.52 42.090667 4.16 14.229333 15.850667 25.194667 32.896 30.528l13.610666 4.266667 2.133334 3.882666-3.626667 13.802667c-21.12 79.850667-52.885333 136.917333-85.717333 150.890667-47.530667 20.202667-72.938667 49.429333-78.421334 85.034666-5.034667 32.682667 9.28 67.114667 37.589334 91.541334l22.037333 8.341333 74.666667 20.010667a42.666667 42.666667 0 0 0 41.216-11.050667c15.274667-15.274667 26.88-28.032 34.837333-38.293333z m551.381333-396.565333c14.144 3.797333 29.952 19.2 32.768 32l34.56 157.781333a10.666667 10.666667 0 0 1-13.184 12.586667L240.64 433.493333a10.666667 10.666667 0 0 1-5.12-17.493333l108.8-119.36c8.832-9.685333 30.229333-15.146667 44.373333-11.349333l141.333334 37.866666a21.333333 21.333333 0 0 0 26.133333-15.082666l58.304-217.642667a21.333333 21.333333 0 0 1 26.133333-15.082667l77.056 20.650667a21.333333 21.333333 0 0 1 15.082667 26.133333l-58.325333 217.642667a21.333333 21.333333 0 0 0 15.082666 26.112l136.448 36.565333zM315.456 701.568c-33.664 45.141333-64.597333 79.082667-92.8 101.802667l-5.909333 4.778666-2.837334 0.597334-88.106666-24.106667-2.922667-3.2c-13.034667-14.165333-19.370667-31.04-16.981333-46.592 3.285333-21.333333 22.058667-39.338667 53.205333-52.586667 31.722667-13.482667 59.818667-47.104 82.922667-99.904 10.026667-22.954667 18.88-48.725333 26.389333-76.586666l3.882667-14.4 3.904-2.261334 566.165333 151.701334 2.346667 3.306666-0.789334 12.224c-1.984 30.592-30.336 229.397333-32.128 244.906667-2.346667 20.416-11.306667 34.986667-27.605333 44.394667a73.237333 73.237333 0 0 1-21.397333 8.106666l-5.013334 0.725334-60.373333-16.170667 11.242667-20.288c8.277333-14.976 22.656-43.84 43.093333-86.613333a21.12 21.12 0 0 0-9.962667-28.16l-3.136-1.493334a21.333333 21.333333 0 0 0-26.261333 6.485334c-33.642667 45.056-64.533333 78.912-92.672 101.546666l-5.909333 4.757334-2.837334 0.597333-52.544-14.08 11.114667-20.266667c3.562667-6.485333 7.04-13.013333 10.453333-19.626666 7.04-13.504 17.898667-35.797333 32.597334-66.816a21.290667 21.290667 0 0 0-9.984-28.309334l-3.029334-1.450666a21.333333 21.333333 0 0 0-26.368 6.442666c-33.6 45.013333-64.469333 78.826667-92.608 101.482667l-5.909333 4.757333-2.837333 0.597334-52.138667-13.973334 11.114667-20.266666c3.242667-5.888 6.72-12.416 10.453333-19.626667 6.997333-13.461333 17.962667-35.946667 32.896-67.434667a20.970667 20.970667 0 0 0-10.112-28.010666l-3.328-1.536a21.333333 21.333333 0 0 0-26.069333 6.613333c-33.642667 45.056-64.554667 78.976-92.778667 101.696l-5.909333 4.757333-2.837334 0.597334-32.64-8.746667 11.093334-20.245333c3.541333-6.506667 7.04-13.034667 10.453333-19.626667 6.976-13.482667 17.941333-35.968 32.874667-67.456a21.056 21.056 0 0 0-10.069334-28.074667l-3.242666-1.514666a21.333333 21.333333 0 0 0-26.154667 6.549333z" fill="#dbdbdb" p-id="3461"/></symbol><symbol id="close" viewBox="0 0 1024 1024"><path d="M550.848 502.496l308.64-308.896a31.968 31.968 0 1 0-45.248-45.248l-308.608 308.896-308.64-308.928a31.968 31.968 0 1 0-45.248 45.248l308.64 308.896-308.64 308.896a31.968 31.968 0 1 0 45.248 45.248l308.64-308.896 308.608 308.896a31.968 31.968 0 1 0 45.248-45.248l-308.64-308.864z" p-id="5904" fill="#ffffff"/></symbol><symbol id="cpu" viewBox="0 0 1024 1024"><path d="M719.768116 237.449275H304.231884a59.362319 59.362319 0 0 0-59.362319 59.362319v415.536232a59.362319 59.362319 0 0 0 59.362319 59.362319h415.536232a59.362319 59.362319 0 0 0 59.362319-59.362319V296.811594a59.362319 59.362319 0 0 0-59.362319-59.362319z m0 474.898551H304.231884V296.811594h415.536232v415.536232z m267.130435-237.449275a29.681159 29.681159 0 0 0 0-59.362319h-103.884058v-89.043478h103.884058a29.681159 29.681159 0 0 0 0-59.362319h-103.884058v-50.265044A78.313739 78.313739 0 0 0 801.391304 133.565217H764.289855V29.681159a29.681159 29.681159 0 0 0-59.362319 0v103.884058h-89.043478V29.681159a29.681159 29.681159 0 0 0-59.362319 0v103.884058h-89.043478V29.681159a29.681159 29.681159 0 0 0-59.362319 0v103.884058h-89.043478V29.681159a29.681159 29.681159 0 0 0-59.362319 0v103.884058h-37.101449C173.516058 133.565217 126.144928 167.698551 126.144928 216.865391V267.130435H37.101449a29.681159 29.681159 0 0 0 0 59.362319h89.043479v89.043478H37.101449a29.681159 29.681159 0 0 0 0 59.362319h89.043479v89.043478H37.101449a29.681159 29.681159 0 0 0 0 59.362319h89.043479v89.043478H37.101449a29.681159 29.681159 0 0 0 0 59.362319h89.043479v23.937855A100.826899 100.826899 0 0 0 222.608696 890.434783H259.710145v103.884058a29.681159 29.681159 0 0 0 59.362319 0v-103.884058h89.043478v103.884058a29.681159 29.681159 0 0 0 59.362319 0v-103.884058h89.043478v103.884058a29.681159 29.681159 0 0 0 59.362319 0v-103.884058h89.043478v103.884058a29.681159 29.681159 0 0 0 59.362319 0v-103.884058h37.101449c49.092638 0 81.623188-45.694145 81.623189-94.786783V771.710145h103.884058a29.681159 29.681159 0 0 0 0-59.362319h-103.884058v-89.043478h103.884058a29.681159 29.681159 0 0 0 0-59.362319h-103.884058v-89.043478h103.884058zM823.652174 801.391304a29.681159 29.681159 0 0 1-29.68116 29.68116H215.188406a29.681159 29.681159 0 0 1-29.68116-29.68116V222.608696a29.681159 29.681159 0 0 1 29.68116-29.68116h578.782608a29.681159 29.681159 0 0 1 29.68116 29.68116v578.782608z" fill="#8a8a8a" p-id="5862" data-darkreader-inline-fill=""/></symbol><symbol id="download" viewBox="0 0 1024 1024"><path d="M1022.955204 522.570753c0 100.19191-81.516572 181.698249-181.718715 181.698249l-185.637977 0c-11.2973 0-20.466124-9.168824-20.466124-20.466124 0-11.307533 9.168824-20.466124 20.466124-20.466124l185.637977 0c77.628008 0 140.786467-63.148226 140.786467-140.766001 0-77.423347-62.841234-140.448776-140.203182-140.766001-0.419556 0.030699-0.818645 0.051165-1.217734 0.061398-5.945409 0.143263-11.686157-2.292206-15.687284-6.702656-4.001127-4.400217-5.894244-10.335393-5.167696-16.250102 1.330298-10.806113 1.944282-19.760043 1.944282-28.192086 0-60.763922-23.658839-117.884874-66.617234-160.833035-42.968627-42.968627-100.089579-66.617234-160.843268-66.617234-47.368844 0-92.742241 14.449084-131.208321 41.781592-37.616736 26.738991-65.952084 63.700811-81.925894 106.884332-2.425236 6.538927-8.012488 11.399631-14.827707 12.893658-6.815219 1.483794-13.927197-0.603751-18.859533-5.54632-19.289322-19.330254-44.943608-29.972639-72.245418-29.972639-56.322773 0-102.146425 45.813419-102.146425 102.125959 0 0.317225 0.040932 0.982374 0.092098 1.627057 0.061398 0.920976 0.122797 1.831718 0.153496 2.762927 0.337691 9.465582-5.863545 17.928325-15.001669 20.455891-32.356942 8.933463-61.541635 28.550243-82.181721 55.217602-21.305235 27.516704-32.571836 60.508096-32.571836 95.41307 0 86.244246 70.188572 156.422585 156.443052 156.422585l169.981393 0c11.2973 0 20.466124 9.15859 20.466124 20.466124 0 11.2973-9.168824 20.466124-20.466124 20.466124l-169.981393 0c-108.828614 0-197.3753-88.536452-197.3753-197.354833 0-44.053332 14.223956-85.712127 41.126676-120.473839 22.809495-29.460985 53.897537-52.086285 88.710414-64.816215 5.065366-74.322729 67.149353-133.2447 142.751215-133.2447 28.386514 0 55.504128 8.217149 78.651314 23.52581 19.657712-39.868009 48.842405-74.169233 85.497233-100.212376 45.434795-32.295544 99.004875-49.354058 154.918325-49.354058 71.692832 0 139.087778 27.915793 189.782368 78.600149 50.694589 50.694589 78.610382 118.089535 78.610382 189.782368 0 3.704368-0.102331 7.470135-0.296759 11.368932C952.633602 352.568894 1022.955204 429.511287 1022.955204 522.570753z" p-id="2599" fill="#ffffff"/><path d="M629.258611 820.711014l-102.023628 102.013395c-3.990894 4.001127-9.230222 5.996574-14.46955 5.996574s-10.478655-1.995447-14.46955-5.996574l-102.023628-102.013395c-7.992021-7.992021-7.992021-20.947078 0-28.939099s20.947078-8.002254 28.939099 0l67.087954 67.077721 0-358.699522c0-11.2973 9.15859-20.466124 20.466124-20.466124 11.307533 0 20.466124 9.168824 20.466124 20.466124l0 358.699522 67.087954-67.077721c7.992021-8.002254 20.947078-7.992021 28.939099 0S637.250632 812.718993 629.258611 820.711014z" p-id="2600" fill="#ffffff"/></symbol><symbol id="full_screen" viewBox="0 0 1024 1024"><path d="M444.3 539.9L202 782.2 199.8 563c0-16.5-13.5-30-30-30s-30 13.5-30 30l2.2 285.1c0 8.8 3.8 16.7 9.8 22.2 5.5 6 13.4 9.8 22.2 9.8h295.6c16.5 0 30-13.5 30-30s-13.5-30-30-30H248.9l237.8-237.8c11.7-11.7 11.7-30.8 0-42.4-11.6-11.6-30.7-11.6-42.4 0zM578.1 488l242.3-242.3 2.2 219.2c0 16.5 13.5 30 30 30s30-13.5 30-30l-2.2-285.1c0-8.8-3.8-16.7-9.8-22.2-5.5-6-13.4-9.8-22.2-9.8H552.8c-16.5 0-30 13.5-30 30s13.5 30 30 30h220.7L535.7 445.6c-11.7 11.7-11.7 30.8 0 42.4 11.7 11.7 30.8 11.7 42.4 0z" fill="#ffffff" p-id="3410"/></symbol><symbol id="huaqiu" viewBox="0 0 50 50">
<style type="text/css">
	.st0{fill:#CC0000;}
</style>
<g>
	<path class="st0" d="M38.3,0H11.9C5.5,0,0.1,5.3,0.1,11.8v26.3C0.1,44.6,5.4,50,11.9,50h26.3c0.1,0,0.3,0,0.6,0
		c-1.5-1.5-2.2-3.3-2.2-5.5c0-0.6,0-1.2,0.1-1.7H12.1c-2.5,0-4.4-2-4.4-4.4V11.8c0-2.5,2-4.4,4.4-4.4h26.3c2.5,0,4.4,2,4.4,4.4v24.7
		c0.6-0.1,1.2-0.1,1.7-0.1c2.2,0,4.1,0.9,5.5,2.2c0-0.1,0-0.3,0-0.4V11.8C50,5.3,44.8,0,38.3,0z"/>
	<path class="st0" d="M44.5,38.9c-3.1,0-5.5,2.5-5.5,5.5s2.5,5.5,5.5,5.5c3.1,0,5.5-2.5,5.5-5.5C49.9,41.2,47.6,38.9,44.5,38.9z"/>
	<polygon class="st0" points="37.8,37.7 37.8,12.3 30.5,12.3 30.5,21.3 19.8,21.3 19.8,12.3 12.3,12.3 12.3,37.7 19.8,37.7 
		19.8,28.6 30.5,28.6 30.5,37.7 	"/>
</g>
</symbol><symbol id="layers" viewBox="0 0 1024 1024"><path d="M110.933333 352l384 192c4.266667 2.133333 10.666667 4.266667 17.066667 4.266667s10.666667-2.133333 17.066667-4.266667l384-192c12.8-6.4 19.2-19.2 19.2-32s-8.533333-25.6-19.2-32l-384-192c-10.666667-4.266667-21.333333-4.266667-32 0l-384 192c-12.8 6.4-19.2 19.2-19.2 32s6.4 25.6 17.066666 32zM512 168.533333L814.933333 320 512 471.466667 209.066667 320 512 168.533333zM878.933333 672L512 855.466667 145.066667 672c-17.066667-8.533333-38.4-2.133333-49.066667 17.066667-8.533333 17.066667-2.133333 38.4 17.066667 49.066666l384 192c4.266667 2.133333 10.666667 4.266667 17.066666 4.266667s10.666667-2.133333 17.066667-4.266667l384-192c17.066667-8.533333 25.6-29.866667 17.066667-49.066666-12.8-19.2-34.133333-25.6-53.333334-17.066667z" fill="#ffffff" p-id="4084"/><path d="M878.933333 480L512 663.466667 145.066667 480c-17.066667-8.533333-38.4-2.133333-49.066667 17.066667-8.533333 17.066667-2.133333 38.4 17.066667 49.066666l384 192c4.266667 2.133333 10.666667 4.266667 17.066666 4.266667s10.666667-2.133333 17.066667-4.266667l384-192c17.066667-8.533333 25.6-29.866667 17.066667-49.066666-12.8-19.2-34.133333-25.6-53.333334-17.066667z" fill="#ffffff" p-id="4085"/></symbol><symbol id="open_file" viewBox="0 0 1024 1024"><path d="M506 894.2a33 32.9 0 1 0 66 0 33 32.9 0 1 0-66 0Z" fill="#ffffff" p-id="1593"/><path d="M864 388.7v-4.4c0-70.7-57.3-128-128-128H511.8l-82.5-110.9c-7.4-12.9-18-16.2-27.3-16l-0.1-0.1H192.1c-70.7 0-128 57.3-128 128v542.1c0 70.7 57.3 128 128 128H407v-0.4c18.2 0 33-14.7 33-32.9s-14.8-32.9-33-32.9c-1 0-2.1 0.1-3.1 0.1h-181c-35.3 0-64-28.7-64-64 0-5.5 0.7-10.9 2-16L234 498.9l0.2-0.1c6.7-28.1 31.9-49 62.1-49.1l0.2-0.1h532.2c1.3-0.1 2.5-0.1 3.8-0.1 35.3 0 64 28.7 64 64 0 6.7-1.1 13.3-3 19.4v0.1L821 812.8c-0.1 0.6-0.3 1.1-0.4 1.7l-1.5 5.8-0.5 0.4c-1.5 3.9-3.4 7.5-5.5 11h-1.3c-2.6 4.7-5.8 9.1-9.5 12.9-11.4 10.6-26.7 17.1-43.4 17.1-1.3 0-2.6 0-3.8-0.1h-80.8c-1-0.1-2.1-0.1-3.1-0.1-18.2 0-33 14.7-33 32.9s14.8 32.9 33 32.9v0.2H763l0.5-0.4c59.1-0.2 108.7-40.4 123.2-95l0.2-0.2 67.8-285.5c2.9-10.8 4.5-22.1 4.5-33.8-0.1-59.5-40.5-109.5-95.2-123.9z m-571.5-4.9c-62 0-113.7 44.2-125.5 102.7l-0.5 0.4-38 160.3V257c0-35.3 28.7-64 64-64H383l82.7 111.3c6.6 11.4 19.2 17.2 31.5 15.8h238.5c35.2 0 63.8 28.5 64 63.7H292.5z" fill="#ffffff" p-id="1594"/></symbol><symbol id="page" viewBox="0 0 1024 1024"><path d="M886.4 963.9H139.6c-42.3 0-76.7-34.4-76.7-76.7V140.4c0-42.3 34.4-76.7 76.7-76.7h746.8c42.3 0 76.7 34.4 76.7 76.7v746.8c0 42.3-34.4 76.7-76.7 76.7zM139.6 110.4c-16.5 0-30 13.5-30 30v746.8c0 16.5 13.5 30 30 30h746.8c16.5 0 30-13.5 30-30V140.4c0-16.5-13.5-30-30-30H139.6z" fill="#ffffff" p-id="16394"/><path d="M963.1 347.1H62.9v-210c0-42.3 34.4-76.7 76.7-76.7h746.8c42.3 0 76.7 34.4 76.7 76.7v210z m-853.5-46.7h806.8V137.1c0-16.5-13.5-30-30-30H139.6c-16.5 0-30 13.5-30 30v163.3z" fill="#ffffff" p-id="16395"/><path d="M349.6 963.9h-210c-42.3 0-76.7-34.4-76.7-76.7V303.8h286.7v660.1z m-240-613.5v536.8c0 16.5 13.5 30 30 30H303V350.4H109.6z" fill="#ffffff" p-id="16396"/></symbol><symbol id="pcb_file" viewBox="0 0 48 48">
    <path d="M11,44C10.2,44 9.5,43.7 8.9,43.1C8.3,42.5 8,41.8 8,41L8,7C8,6.2 8.3,5.5 8.9,4.9C9.5,4.3 10.2,4 11,4L29.05,4L40,14.95L40,41C40,41.8 39.7,42.5 39.1,43.1C38.5,43.7 37.8,44 37,44L11,44ZM27.55,16.3L27.55,7L11,7L11,41L37,41L37,16.3L27.55,16.3ZM11,7L11,16.3L11,7L11,41L11,7Z"/>
    <path d="M20.231,37.681C20.231,37.681 20.231,36.001 20.231,36.001L18.007,36.001C17.437,36.001 16.936,35.792 16.509,35.365C16.081,34.937 15.872,34.437 15.872,33.867L15.872,31.643L13.693,31.643L13.693,29.008C13.693,29.008 15.872,29.008 15.872,29.008L15.872,26.63L13.693,26.63L13.693,23.995C13.693,23.995 15.872,23.995 15.872,23.995L15.872,21.771C15.872,21.201 16.081,20.701 16.509,20.273C16.936,19.846 17.437,19.636 18.007,19.636C18.007,19.636 20.231,19.636 20.231,19.636L20.231,17.566L22.865,17.566C22.865,17.566 22.865,19.636 22.865,19.636C22.865,19.636 25.244,19.636 25.244,19.636L25.244,17.566L27.878,17.566C27.878,17.566 27.878,19.636 27.878,19.636L30.102,19.636C30.672,19.636 31.173,19.846 31.6,20.273C32.028,20.701 32.237,21.201 32.237,21.771C32.237,21.771 32.237,23.995 32.237,23.995L34.307,23.995L34.307,26.63C34.307,26.63 32.237,26.63 32.237,26.63C32.237,26.63 32.237,29.008 32.237,29.008L34.307,29.008L34.307,31.643C34.307,31.643 32.237,31.643 32.237,31.643L32.237,33.867C32.237,34.437 32.028,34.937 31.6,35.365C31.173,35.792 30.672,36.001 30.102,36.001L27.878,36.001L27.878,38.181L25.244,38.181C25.244,38.181 25.244,36.001 25.244,36.001L22.865,36.001L22.865,38.181L20.231,38.181L20.231,37.681ZM29.602,33.367L29.602,22.271L18.507,22.271L18.507,33.367L29.602,33.367ZM20.694,24.595L27.279,24.595L27.279,31.179L20.694,31.179L20.694,24.595ZM23.329,28.545C23.329,28.545 24.644,28.545 24.644,28.545C24.644,28.545 24.644,27.229 24.644,27.229C24.644,27.229 23.329,27.229 23.329,27.229L23.329,28.545Z"/>
</symbol><symbol id="reset" viewBox="0 0 1024 1024">
    <path d="M16 960.608L63.392 1008l323.232-323.232v146.048h66.688v-260.128H193.184v66.688h146.048L16 960.608z m621.376-621.376V193.184h-66.688v260.128h260.128v-66.688h-146.048L1008 63.392 960.608 16 637.376 339.232z m193.44 298.144v-66.688h-260.128v260.128h66.688v-146.048L960.608 1008l47.392-47.392-323.232-323.232h146.048zM16 63.392l323.232 323.232H193.184v66.688h260.128V193.184h-66.688v146.048L63.392 16 16 63.392z" p-id="33295" fill="#ffffff"/>
</symbol><symbol id="schematic_file" viewBox="0 0 48 48">
    <path d="M11,44C10.2,44 9.5,43.7 8.9,43.1C8.3,42.5 8,41.8 8,41L8,7C8,6.2 8.3,5.5 8.9,4.9C9.5,4.3 10.2,4 11,4L29.05,4L40,14.95L40,41C40,41.8 39.7,42.5 39.1,43.1C38.5,43.7 37.8,44 37,44L11,44ZM27.55,16.3L27.55,7L11,7L11,41L37,41L37,16.3L27.55,16.3ZM11,7L11,16.3L11,7L11,41L11,7Z"/>
    <path d="M18.256,26.367L15.377,26.367L15.377,23.367L18.256,23.367L18.256,23.184C18.256,22.155 18.784,21.198 19.654,20.648C20.524,20.098 21.615,20.033 22.544,20.475L24.69,21.494L24.69,19.353L27.69,19.353L27.69,22.92L32.411,25.164C33.457,25.661 34.123,26.715 34.123,27.873C34.123,29.031 33.457,30.086 32.411,30.583L27.69,32.827L27.69,36.394L24.69,36.394L24.69,34.252L22.544,35.272C21.615,35.714 20.524,35.648 19.654,35.099C18.784,34.549 18.256,33.592 18.256,32.563L18.256,32.38L15.377,32.38L15.377,29.38L18.256,29.38L18.256,26.367ZM21.256,32.563L31.123,27.873L21.256,23.184L21.256,32.563Z"/>
</symbol><symbol id="search" viewBox="0 0 1024 1024">
    <path d="M909.6 854.5L649.9 594.8C690.2 542.7 712 479 712 412c0-80.2-31.3-155.4-87.9-212.1-56.6-56.7-132-87.9-212.1-87.9s-155.5 31.3-212.1 87.9C143.2 256.5 112 331.8 112 412c0 80.1 31.3 155.5 87.9 212.1C256.5 680.8 331.8 712 412 712c67 0 130.6-21.8 182.7-62l259.7 259.6c3.2 3.2 8.4 3.2 11.6 0l43.6-43.5c3.2-3.2 3.2-8.4 0-11.6zM570.4 570.4C528 612.7 471.8 636 412 636s-116-23.3-158.4-65.6C211.3 528 188 471.8 188 412s23.3-116.1 65.6-158.4C296 211.3 352.2 188 412 188s116.1 23.2 158.4 65.6S636 352.2 636 412s-23.3 116.1-65.6 158.4z" fill="#4f46e5" p-id="7087" data-darkreader-inline-fill=""/>
</symbol><symbol id="shield-alert" viewBox="0 0 1024 1024"><path d="M835.584 514.496l-318.944 0 0 416.256c0 0-222.784-107.488-319.936-416.736l319.936 0 0-401.024c179.552 151.296 369.504 105.568 369.504 105.568-3.488 175.84-50.528 295.968-50.528 295.968l0 0zM942.112 103.84c-211.552 155.264-427.904-82.496-427.904-82.496-228.32 242.56-425.44 84.928-425.44 84.928-48.064 696.16 425.44 895.104 425.44 895.104 514.368-271.712 427.904-897.536 427.904-897.536l0 0z" fill="#A4D64F" p-id="9262" data-darkreader-inline-fill=""/></symbol><symbol id="visibility" viewBox="0 0 1024 1024">
   <path d="M1019.733333 494.933333s-4.266667-12.8-8.533333-17.066666l-21.333333-42.666667c-21.333333-34.133333-51.2-76.8-93.866667-123.733333C814.933333 221.866667 686.933333 128 512 128S209.066667 221.866667 128 311.466667C85.333333 358.4 55.466667 401.066667 34.133333 435.2c-8.533333 17.066667-17.066667 29.866667-21.333333 42.666667-4.266667 4.266667-8.533333 17.066667-8.533333 17.066666-4.266667 12.8-4.266667 25.6 0 34.133334 0 0 4.266667 12.8 8.533333 17.066666l21.333333 42.666667c21.333333 34.133333 51.2 76.8 93.866667 123.733333 81.066667 89.6 209.066667 183.466667 384 183.466667s302.933333-93.866667 384-183.466667c42.666667-46.933333 72.533333-89.6 93.866667-123.733333 8.533333-17.066667 17.066667-29.866667 21.333333-42.666667 4.266667-4.266667 8.533333-17.066667 8.533333-17.066666 4.266667-12.8 4.266667-21.333333 0-34.133334z m-102.4 46.933334c-17.066667 29.866667-46.933333 72.533333-81.066666 110.933333-76.8 81.066667-183.466667 157.866667-324.266667 157.866667s-247.466667-76.8-324.266667-157.866667c-38.4-38.4-64-81.066667-81.066666-110.933333-8.533333-12.8-12.8-21.333333-17.066667-29.866667 4.266667-8.533333 8.533333-17.066667 17.066667-29.866667 21.333333-29.866667 46.933333-72.533333 81.066666-110.933333C264.533333 290.133333 371.2 213.333333 512 213.333333s247.466667 76.8 324.266667 157.866667c38.4 38.4 64 81.066667 81.066666 110.933333 8.533333 12.8 12.8 21.333333 17.066667 29.866667-4.266667 8.533333-12.8 17.066667-17.066667 29.866667z" fill="#ffffff" p-id="18831"/>
   <path d="M512 358.4c-76.8 0-145.066667 68.266667-145.066667 153.6s68.266667 153.6 145.066667 153.6 145.066667-68.266667 145.066667-153.6-68.266667-153.6-145.066667-153.6zM281.6 512C281.6 384 384 273.066667 512 273.066667S742.4 384 742.4 512 640 750.933333 512 750.933333 281.6 640 281.6 512z" fill="#ffffff" p-id="18832"/>
</symbol><symbol id="visibility_off" viewBox="0 0 1024 1024">
   <path d="M512.012373 213.333333c-20.010667 0-39.210667 1.493333-57.642666 4.266667a42.666667 42.666667 0 0 1-12.714667-84.394667C464.268373 129.792 487.73504 128 512.012373 128c175.402667 0 303.36 94.506667 385.322667 184.618667a790.186667 790.186667 0 0 1 114.858667 165.290666 490.026667 490.026667 0 0 1 7.466666 15.274667l0.426667 0.981333 0.170667 0.341334v0.085333l0.042666 0.042667L981.345707 512l38.997333 17.365333-0.085333 0.128-0.085334 0.213334-0.341333 0.768a656.64 656.64 0 0 1-22.613333 43.264 800.853333 800.853333 0 0 1-67.84 99.925333 42.666667 42.666667 0 0 1-66.773334-53.12A714.837333 714.837333 0 0 0 933.772373 512a704.64 704.64 0 0 0-99.541333-141.952C760.929707 289.493333 654.177707 213.333333 512.012373 213.333333z m469.333334 298.666667l38.997333 17.365333a42.794667 42.794667 0 0 0 0-34.730666L981.345707 512zM186.977707 309.76a42.666667 42.666667 0 0 1 2.816 60.288A704.853333 704.853333 0 0 0 90.252373 512a705.066667 705.066667 0 0 0 99.541334 141.952C263.09504 734.506667 369.84704 810.666667 512.012373 810.666667a381.738667 381.738667 0 0 0 134.4-24.149334 42.666667 42.666667 0 0 1 29.866667 79.914667A467.157333 467.157333 0 0 1 512.012373 896c-175.402667 0-303.36-94.506667-385.322666-184.618667a790.058667 790.058667 0 0 1-114.858667-165.290666 470.101333 470.101333 0 0 1-7.466667-15.274667l-0.426666-0.981333-0.170667-0.341334-0.042667-0.085333v-0.042667L42.67904 512l-38.997333-17.365333 0.042666-0.042667 0.042667-0.085333 0.128-0.341334 0.426667-0.981333 1.621333-3.328a701.866667 701.866667 0 0 1 28.842667-53.12 790.186667 790.186667 0 0 1 91.904-124.117333 42.666667 42.666667 0 0 1 60.288-2.858667zM42.67904 512l-38.997333-17.365333a42.794667 42.794667 0 0 0 0 34.730666L42.67904 512z" fill="#888888" p-id="19614"/>
   <path d="M469.345707 316.970667a42.666667 42.666667 0 0 1 42.666666-42.666667c128.768 0 230.4 107.946667 230.4 237.696a42.666667 42.666667 0 1 1-85.333333 0c0-85.717333-66.474667-152.362667-145.066667-152.362667a42.666667 42.666667 0 0 1-42.666666-42.666666z m-131.584 110.634666a42.666667 42.666667 0 0 1 32.725333 50.688A160.426667 160.426667 0 0 0 366.945707 512c0 85.717333 66.474667 152.362667 145.066666 152.362667 11.264 0 22.186667-1.322667 32.64-3.84a42.666667 42.666667 0 0 1 20.053334 82.944A224.128 224.128 0 0 1 512.012373 749.653333c-128.768 0-230.4-107.946667-230.4-237.696 0-17.664 1.877333-34.986667 5.461334-51.626666a42.666667 42.666667 0 0 1 50.688-32.768zM97.84704 55.168a42.666667 42.666667 0 0 1 60.330667 0l768 768a42.666667 42.666667 0 0 1-60.330667 60.330667l-768-768a42.666667 42.666667 0 0 1 0-60.330667z" fill="#888888" p-id="19615"/>
</symbol><symbol id="zoom_footprint" viewBox="0 0 48 48">
    <g>
        <path d="M33,38.5C34.567,38.5 35.875,37.975 36.925,36.925C37.975,35.875 38.5,34.567 38.5,33C38.5,31.433 37.975,30.125 36.925,29.075C35.875,28.025 34.567,27.5 33,27.5C31.433,27.5 30.125,28.025 29.075,29.075C28.025,30.125 27.5,31.433 27.5,33C27.5,34.567 28.025,35.875 29.075,36.925C30.125,37.975 31.433,38.5 33,38.5ZM43.2,45.3L37.842,39.95C37.147,40.417 36.392,40.792 35.575,41.075C34.758,41.358 33.9,41.5 33,41.5C30.639,41.5 28.632,40.673 26.979,39.019C25.326,37.365 24.5,35.357 24.5,32.994C24.5,30.631 25.327,28.625 26.981,26.975C28.635,25.325 30.643,24.5 33.006,24.5C35.369,24.5 37.375,25.326 39.025,26.979C40.675,28.632 41.5,30.639 41.5,33C41.5,33.9 41.358,34.758 41.075,35.575C40.792,36.392 40.417,37.147 39.95,37.842L45.3,43.2L43.2,45.3Z"/>
        <path d="M22.597,38L21,38L21,42L18,42L18,38L13,38C12.2,38 11.5,37.7 10.9,37.1C10.3,36.5 10,35.8 10,35L10,30L6,30L6,27L10,27L10,20.8L6,20.8L6,17.8L10,17.8L10,12.8C10,12 10.3,11.3 10.9,10.7C11.5,10.1 12.2,9.8 13,9.8L18,9.8L18,6L21,6L21,9.8L27.2,9.8L27.2,6L30.2,6L30.2,9.8L35.2,9.8C36,9.8 36.7,10.1 37.3,10.7C37.9,11.3 38.2,12 38.2,12.8L38.2,17.8L42,17.8L42,20.8L38.2,20.8L38.2,22.691C37.262,22.214 36.262,21.88 35.2,21.69L35.2,12.8L13,12.8L13,35L21.657,35C21.83,36.06 22.143,37.06 22.597,38ZM22.119,29.15L18.85,29.15L18.85,18.9L29.1,18.9L29.1,22.139C28.029,22.515 27.029,23.058 26.1,23.767L26.1,21.9L21.85,21.9L21.85,26.15L23.727,26.15C23.025,27.079 22.489,28.079 22.119,29.15Z"/>
    </g>
</symbol><symbol id="zoom_in" viewBox="0 0 1024 1024">
    <path d="M801.171 547.589H222.83c-17.673 0-32-14.327-32-32s14.327-32 32-32h578.341c17.673 0 32 14.327 32 32s-14.327 32-32 32z" fill="#e6e6e6" p-id="45748"/>
</symbol><symbol id="zoom_out" viewBox="0 0 1024 1024"><path d="M469.333333 469.333333V170.666667h85.333334v298.666666h298.666666v85.333334h-298.666666v298.666666h-85.333334v-298.666666H170.666667v-85.333334h298.666666z" fill="#ffffff" p-id="44249"/></symbol><symbol id="zoom_page" viewBox="0 0 48 48">
    <g>
        <path d="M9,41L24.75,41C25.417,41.7 26.158,42.3 26.975,42.8C27.792,43.3 28.683,43.7 29.65,44L9,44C8.2,44 7.5,43.7 6.9,43.1C6.3,42.5 6,41.8 6,41L6.02,9.006C6.02,8.206 6.32,7.506 6.92,6.906C7.52,6.306 8.22,6.006 9.02,6.006L27.07,6.006L38,14.95L38,22.65C37.533,22.417 37.05,22.217 36.55,22.05C36.05,21.883 35.533,21.75 35,21.65L35,16.3L25.55,16.3L25.57,9.006L9.02,9.006L9,16.3L9,41Z"/>
        <path d="M43.2,45.3L37.842,39.95C37.147,40.417 36.392,40.792 35.575,41.075C34.758,41.358 33.9,41.5 33,41.5C30.639,41.5 28.632,40.673 26.979,39.019C25.326,37.365 24.5,35.357 24.5,32.994C24.5,30.631 25.327,28.625 26.981,26.975C28.635,25.325 30.643,24.5 33.006,24.5C35.369,24.5 37.375,25.326 39.025,26.979C40.675,28.632 41.5,30.639 41.5,33C41.5,33.9 41.358,34.758 41.075,35.575C40.792,36.392 40.417,37.147 39.95,37.842L45.3,43.2L43.2,45.3ZM33,38.5C34.567,38.5 35.875,37.975 36.925,36.925C37.975,35.875 38.5,34.567 38.5,33C38.5,31.433 37.975,30.125 36.925,29.075C35.875,28.025 34.567,27.5 33,27.5C31.433,27.5 30.125,28.025 29.075,29.075C28.025,30.125 27.5,31.433 27.5,33C27.5,34.567 28.025,35.875 29.075,36.925C30.125,37.975 31.433,38.5 33,38.5Z"/>
    </g>
</symbol></svg>